<svg xmlns="http://www.w3.org/2000/svg" viewBox="0 0 237.69 168.41"><defs><style>.cls-1{fill:#d5c4a7;}.cls-2{isolation:isolate;font-size:26px;fill:#e6332a;font-family:Coustard-Black, Coustard;font-weight:800;}</style></defs><g id="Capa_2" data-name="Capa 2"><g id="Capa_1-2" data-name="Capa 1"><g id="Descripción"><g id="Grupo_13" data-name="Grupo 13"><path id="Trazado_20" data-name="Trazado 20" class="cls-1" d="M165.44,164.41a4.67,4.67,0,0,1,1.3-2.62,28.33,28.33,0,0,1,2.88-3,21,21,0,0,0,2.87-3.23,5.78,5.78,0,0,0,1.3-3.27c0-.54-.63-1.07-1.89-1.6l-4.1-1.78a10,10,0,0,1-4.11-3.93,13.46,13.46,0,0,1-1.89-7.38,15.58,15.58,0,0,1,4.95-12q4.94-4.59,12.93-4.58a17.86,17.86,0,0,1,12.83,5,16.29,16.29,0,0,1,5.27,12.28,24.68,24.68,0,0,1-2.25,9.63,43.31,43.31,0,0,1-5.85,9.81,32.79,32.79,0,0,1-8.54,7.6,18.48,18.48,0,0,1-9.74,3.05,7,7,0,0,1-4.33-1.23A3.47,3.47,0,0,1,165.44,164.41Zm39.9,0c0-.88.7-2,2.11-3.46s2.8-2.93,4.18-4.5,2.07-3,2.07-4.18c0-.54-.63-1.07-1.89-1.6l-4.11-1.78a9.89,9.89,0,0,1-4.1-3.93,13.29,13.29,0,0,1-1.89-7.38,15.57,15.57,0,0,1,4.94-12Q211.6,121,219.59,121a17.89,17.89,0,0,1,12.83,5,16.29,16.29,0,0,1,5.27,12.28,24.7,24.7,0,0,1-2.26,9.63,43,43,0,0,1-5.85,9.81,32.79,32.79,0,0,1-8.54,7.6,18.55,18.55,0,0,1-9.74,3.06,7,7,0,0,1-4.32-1.24A3.46,3.46,0,0,1,205.34,164.41Z"/><path id="Trazado_21" data-name="Trazado 21" class="cls-1" d="M72.25,4A4.67,4.67,0,0,1,71,6.63a29.26,29.26,0,0,1-2.88,3,21.06,21.06,0,0,0-2.87,3.24,5.78,5.78,0,0,0-1.3,3.27c0,.53.63,1.07,1.89,1.6s2.62,1.13,4.1,1.78A10,10,0,0,1,74,23.45a13.48,13.48,0,0,1,1.89,7.38,15.56,15.56,0,0,1-5,12Q66,47.41,58,47.41a17.94,17.94,0,0,1-12.83-5,16.29,16.29,0,0,1-5.27-12.28,24.64,24.64,0,0,1,2.25-9.63A42.8,42.8,0,0,1,48,10.66a33,33,0,0,1,8.54-7.6A18.48,18.48,0,0,1,66.29,0a7,7,0,0,1,4.33,1.24A3.47,3.47,0,0,1,72.25,4ZM32.35,4c0,.87-.7,2-2.11,3.45s-2.8,2.93-4.18,4.51S24,14.94,24,16.15c0,.53.63,1.07,1.89,1.6s2.63,1.13,4.11,1.78a9.87,9.87,0,0,1,4.1,3.92A13.4,13.4,0,0,1,36,30.83a15.56,15.56,0,0,1-4.94,12q-5,4.59-12.94,4.59a18,18,0,0,1-12.83-5A16.29,16.29,0,0,1,0,30.11a24.65,24.65,0,0,1,2.26-9.63,42.8,42.8,0,0,1,5.85-9.82,33,33,0,0,1,8.54-7.6A18.45,18.45,0,0,1,26.39,0a7,7,0,0,1,4.32,1.23A3.48,3.48,0,0,1,32.35,4Z"/><g id="Diferente_hamburguesa_diferente_experiencia" data-name="Diferente hamburguesa diferente experiencia"><text class="cls-2" transform="translate(13 40.01)">Diferente</text><text class="cls-2" transform="translate(13 77.01)">hamburguesa,</text><text class="cls-2" transform="translate(13 114.01)">diferente</text><text class="cls-2" transform="translate(13 151.01)">experiencia</text></g></g></g></g></g></svg>