<?xml version="1.0" encoding="utf-8"?>
<!-- Generator: Adobe Illustrator 24.1.1, SVG Export Plug-In . SVG Version: 6.00 Build 0)  -->
<svg version="1.1" id="Capa_1" xmlns="http://www.w3.org/2000/svg" xmlns:xlink="http://www.w3.org/1999/xlink" x="0px" y="0px"
	 viewBox="0 0 55.2 70.6" style="enable-background:new 0 0 55.2 70.6;" xml:space="preserve">
<style type="text/css">
	.st0{fill:#D5C4A7;}
</style>
<g id="Capa_2_1_">
	<g id="Capa_1-2">
		<g id="_2">
			<g>
				<g>
					<path class="st0" d="M55.2,70.6H1.3V55.9l25.6-21.2c1.5-1.2,2.9-2.5,4.2-3.8c1-1,1.9-2.2,2.6-3.5c0.6-1.2,0.9-2.5,0.9-3.9
						c0-1.4-0.3-2.8-1-4C33,18.4,32.1,17.6,31,17c-1.2-0.6-2.6-0.9-4-0.9c-1.4,0-2.8,0.3-4.1,0.9c-1.1,0.6-2,1.5-2.6,2.6
						c-0.6,1.3-0.9,2.8-0.9,4.3l0,1H0l0-1c-0.1-4.5,1-8.9,3.3-12.8c2.3-3.7,5.6-6.5,9.5-8.3c4.4-2,9.3-3,14.2-2.9
						c4.9-0.1,9.8,0.8,14.4,2.7c3.9,1.6,7.2,4.2,9.7,7.6c2.3,3.4,3.5,7.5,3.4,11.6c0,2.8-0.6,5.5-1.7,8.1c-1.5,3.3-3.5,6.2-6,8.8
						c-3.7,4-7.8,7.7-12,11.2l-4.7,3.9h25.1V70.6z M3.3,68.6h49.9V55.9H26.8V54l6.7-5.6c4.2-3.4,8.2-7.1,11.8-11
						c2.3-2.4,4.2-5.2,5.6-8.2c1-2.3,1.5-4.8,1.5-7.3c0.1-3.7-1-7.3-3.1-10.4c-2.2-3.1-5.2-5.5-8.8-6.9C36.3,2.8,31.7,1.9,27,2
						c-4.6-0.1-9.2,0.8-13.4,2.7C10.1,6.3,7.1,8.9,5,12.2C3.1,15.5,2.1,19.2,2,23h15.5c0.1-1.5,0.5-2.9,1.1-4.3
						c0.8-1.5,2-2.7,3.4-3.5c1.5-0.8,3.3-1.2,5-1.1c1.7,0,3.4,0.3,4.9,1.1c1.5,0.7,2.6,1.9,3.5,3.2c0.9,1.5,1.3,3.2,1.3,5
						c0,1.6-0.4,3.3-1.1,4.7c-0.8,1.5-1.8,2.9-3,4.1c-1.4,1.4-2.9,2.7-4.4,4L3.3,56.8V68.6z"/>
				</g>
			</g>
		</g>
	</g>
</g>
</svg>
