<svg xmlns="http://www.w3.org/2000/svg" viewBox="0 0 57.62 71.49"><defs><style>.cls-1{isolation:isolate;}.cls-2{fill:#d5c4a7;}</style></defs><g id="Capa_2" data-name="Capa 2"><g id="Capa_1-2" data-name="Capa 1"><g id="_1" data-name=" 1"><g class="cls-1"><path class="cls-2" d="M28.48,71.49a35.66,35.66,0,0,1-14.59-2.85A24.69,24.69,0,0,1,3.76,60.71,19.71,19.71,0,0,1,0,49V48H20.48l0,1a4.71,4.71,0,0,0,1,2.89,6.73,6.73,0,0,0,2.81,2.08,11.07,11.07,0,0,0,4.3.78,9.54,9.54,0,0,0,4.07-.81,6.33,6.33,0,0,0,2.63-2.18,5.25,5.25,0,0,0,.89-3.13,4.48,4.48,0,0,0-1-3,7.37,7.37,0,0,0-3.13-2.17,13.36,13.36,0,0,0-4.89-.82H19.29V27.87h7.87a11.33,11.33,0,0,0,4.45-.81,6.75,6.75,0,0,0,2.86-2.15,4.77,4.77,0,0,0,.94-3,5,5,0,0,0-.8-3,5.64,5.64,0,0,0-2.35-2,8.35,8.35,0,0,0-3.65-.75,9.84,9.84,0,0,0-4.06.8,6.47,6.47,0,0,0-2.68,2.14,5.19,5.19,0,0,0-1,3.07l0,1H1.32v-1a19.64,19.64,0,0,1,3.6-11.54,23.8,23.8,0,0,1,9.7-7.79,33.33,33.33,0,0,1,14-2.8A33.64,33.64,0,0,1,42.28,2.63,23,23,0,0,1,51.7,9.94a17.68,17.68,0,0,1,3.41,10.75,12.89,12.89,0,0,1-4.2,10,17.08,17.08,0,0,1-6.63,3.76,18.42,18.42,0,0,1,9,4.62,14.76,14.76,0,0,1,4.36,11,17.53,17.53,0,0,1-3.76,11.14A24.68,24.68,0,0,1,43.51,68.8,39.55,39.55,0,0,1,28.48,71.49ZM2,50a17.67,17.67,0,0,0,3.35,9.58,22.7,22.7,0,0,0,9.33,7.29,33.73,33.73,0,0,0,13.77,2.67A37.58,37.58,0,0,0,42.75,67a22.7,22.7,0,0,0,9.53-6.89,15.56,15.56,0,0,0,3.34-9.91,12.7,12.7,0,0,0-3.77-9.62c-2.57-2.56-6.52-4.15-11.72-4.72l-.89-.09V33.39l.89-.09a16.2,16.2,0,0,0,9.42-4,10.82,10.82,0,0,0,3.56-8.56,15.69,15.69,0,0,0-3-9.58,20.84,20.84,0,0,0-8.61-6.66A31.75,31.75,0,0,0,28.61,2,31.37,31.37,0,0,0,15.46,4.62a21.82,21.82,0,0,0-8.9,7.13,17.46,17.46,0,0,0-3.2,9.39H19a7.1,7.1,0,0,1,1.27-3.21,8.41,8.41,0,0,1,3.49-2.81,11.75,11.75,0,0,1,4.88-1,10.35,10.35,0,0,1,4.52.95,7.69,7.69,0,0,1,3.16,2.74,7.08,7.08,0,0,1,1.12,4.06,6.8,6.8,0,0,1-1.34,4.21,8.62,8.62,0,0,1-3.68,2.8,13.19,13.19,0,0,1-5.23,1H21.29V40.56h5.87a15.36,15.36,0,0,1,5.62,1,9.2,9.2,0,0,1,4,2.78,6.44,6.44,0,0,1,1.46,4.27A7.2,7.2,0,0,1,37,52.81a8.21,8.21,0,0,1-3.44,2.88,11.65,11.65,0,0,1-4.92,1,12.91,12.91,0,0,1-5.07-.94A8.61,8.61,0,0,1,19.91,53,6.73,6.73,0,0,1,18.58,50Z"/></g></g></g></g></svg>