<svg xmlns="http://www.w3.org/2000/svg" viewBox="0 0 323.22 84.72"><defs><style>.cls-1{isolation:isolate;}.cls-2{fill:#fff;}.cls-3{fill:none;stroke:#e6332a;stroke-linecap:round;stroke-width:2px;}</style></defs><g id="Capa_2" data-name="Capa 2"><g id="Capa_1-2" data-name="Capa 1"><g id="Martes_miércoles_y_jueves" data-name="Martes miércoles y jueves" class="cls-1"><g class="cls-1"><path class="cls-2" d="M0,1.48H2.73L9.16,17.17h.22L15.81,1.48h2.73V20.39H16.4V6h-.19L10.3,20.39H8.24L2.33,6H2.14V20.39H0Z"/><path class="cls-2" d="M27,20.72a5.74,5.74,0,0,1-2.45-.51,4,4,0,0,1-2.39-3.85,3.67,3.67,0,0,1,.48-2,3.43,3.43,0,0,1,1.28-1.2,7.51,7.51,0,0,1,1.78-.65c.65-.14,1.3-.26,2-.34l2.1-.26a2.89,2.89,0,0,0,1.18-.3.77.77,0,0,0,.38-.73v-.08a2.91,2.91,0,0,0-.74-2.12,3,3,0,0,0-2.25-.76,4,4,0,0,0-2.45.68,4.16,4.16,0,0,0-1.25,1.46l-2.06-.74a4.85,4.85,0,0,1,1.48-2,5.4,5.4,0,0,1,2-1A8.64,8.64,0,0,1,28.25,6a8.79,8.79,0,0,1,1.58.16,5.19,5.19,0,0,1,1.72.66,3.86,3.86,0,0,1,1.39,1.51A5.58,5.58,0,0,1,33.5,11v9.35H31.32V18.47h-.11a4.12,4.12,0,0,1-.74,1,4.34,4.34,0,0,1-1.38.9A5.21,5.21,0,0,1,27,20.72Zm.33-2a4.31,4.31,0,0,0,2.18-.51,3.34,3.34,0,0,0,1.35-1.31,3.31,3.31,0,0,0,.46-1.69v-2a1.3,1.3,0,0,1-.61.3,7.91,7.91,0,0,1-1.07.23L28.47,14l-.92.11a8.31,8.31,0,0,0-1.58.36,2.61,2.61,0,0,0-1.18.73,1.84,1.84,0,0,0-.45,1.31,1.93,1.93,0,0,0,.84,1.71A3.71,3.71,0,0,0,27.33,18.76Z"/><path class="cls-2" d="M37.49,20.39V6.21h2.1V8.35h.15a3.41,3.41,0,0,1,1.4-1.71A4.12,4.12,0,0,1,43.43,6H44l.55,0V8.24l-.51-.09a5.36,5.36,0,0,0-.82-.06,3.86,3.86,0,0,0-1.85.43A3.28,3.28,0,0,0,40.13,9.7a3.18,3.18,0,0,0-.47,1.71v9Z"/><path class="cls-2" d="M54.22,6.21V8.05H46.87V6.21ZM49,2.81h2.18V16.32a2.75,2.75,0,0,0,.27,1.38,1.29,1.29,0,0,0,.7.61,2.53,2.53,0,0,0,.91.16,3.09,3.09,0,0,0,.59,0l.37-.06.44,1.95a3.93,3.93,0,0,1-.62.17,4.61,4.61,0,0,1-1,.09,4.29,4.29,0,0,1-1.81-.4A3.54,3.54,0,0,1,49.58,19a3.46,3.46,0,0,1-.57-2Z"/><path class="cls-2" d="M63.3,20.68a6.58,6.58,0,0,1-3.53-.91,5.89,5.89,0,0,1-2.28-2.55,8.62,8.62,0,0,1-.8-3.81,8.83,8.83,0,0,1,.8-3.85A6.25,6.25,0,0,1,59.72,7,6,6,0,0,1,63.08,6a6.63,6.63,0,0,1,2.19.37,5.47,5.47,0,0,1,2,1.19,5.86,5.86,0,0,1,1.42,2.19,9.3,9.3,0,0,1,.52,3.34V14H58.24V12.15H67A4.65,4.65,0,0,0,66.48,10a3.67,3.67,0,0,0-1.35-1.49,3.8,3.8,0,0,0-2-.54,3.89,3.89,0,0,0-2.25.64,4.26,4.26,0,0,0-1.45,1.67,4.83,4.83,0,0,0-.51,2.19v1.26a6,6,0,0,0,.56,2.72A4,4,0,0,0,61,18.15a4.61,4.61,0,0,0,2.32.57,4.82,4.82,0,0,0,1.56-.24,3.23,3.23,0,0,0,1.2-.74,3.39,3.39,0,0,0,.79-1.23l2.1.59A4.58,4.58,0,0,1,67.83,19a5.24,5.24,0,0,1-1.93,1.25A7.13,7.13,0,0,1,63.3,20.68Z"/><path class="cls-2" d="M82.54,9.38l-2,.55A3.66,3.66,0,0,0,80,9a2.58,2.58,0,0,0-1-.77,3.41,3.41,0,0,0-1.56-.31,3.73,3.73,0,0,0-2.17.6A1.79,1.79,0,0,0,74.49,10a1.55,1.55,0,0,0,.59,1.28,4.89,4.89,0,0,0,1.85.79l2.1.51A5.87,5.87,0,0,1,81.87,14a3.32,3.32,0,0,1,.93,2.43,3.57,3.57,0,0,1-.7,2.18,4.67,4.67,0,0,1-1.94,1.52,7.08,7.08,0,0,1-2.9.55,6.35,6.35,0,0,1-3.59-.94A4.15,4.15,0,0,1,71.87,17l2.07-.52a2.82,2.82,0,0,0,1.12,1.72,3.73,3.73,0,0,0,2.16.57,4.09,4.09,0,0,0,2.43-.65,1.88,1.88,0,0,0,.9-1.56A1.66,1.66,0,0,0,80,15.3a3.37,3.37,0,0,0-1.59-.75L76.08,14a5.62,5.62,0,0,1-2.86-1.44,3.46,3.46,0,0,1-.91-2.44A3.49,3.49,0,0,1,73,8a4.47,4.47,0,0,1,1.86-1.45A6.46,6.46,0,0,1,77.52,6a5.36,5.36,0,0,1,3.31.92A5,5,0,0,1,82.54,9.38Z"/><path class="cls-2" d="M89.34,17.8l-.15,1a20.33,20.33,0,0,1-.48,2.25c-.21.8-.43,1.56-.66,2.26s-.41,1.27-.56,1.69H85.83c.08-.39.18-.91.31-1.56s.26-1.36.39-2.16.25-1.61.33-2.44l.11-1Z"/><path class="cls-2" d="M100.67,20.39V6.21h2.11V8.42H103a3.61,3.61,0,0,1,1.44-1.77A4.3,4.3,0,0,1,106.77,6a4.13,4.13,0,0,1,2.34.63,4.21,4.21,0,0,1,1.46,1.77h.15a4.22,4.22,0,0,1,1.63-1.75A5.07,5.07,0,0,1,115,6a4.26,4.26,0,0,1,3.11,1.19,5,5,0,0,1,1.21,3.69v9.49h-2.18V10.9a2.7,2.7,0,0,0-.86-2.25,3.17,3.17,0,0,0-2-.67,3,3,0,0,0-2.32.9,3.23,3.23,0,0,0-.82,2.27v9.24h-2.22V10.67a2.58,2.58,0,0,0-.78-1.95,2.84,2.84,0,0,0-2-.74,3,3,0,0,0-1.59.45,3.38,3.38,0,0,0-1.18,1.25,3.69,3.69,0,0,0-.45,1.84v8.87Z"/><path class="cls-2" d="M124.38,3.84a1.53,1.53,0,0,1-1.09-.43,1.42,1.42,0,0,1,0-2.09,1.61,1.61,0,0,1,2.19,0,1.42,1.42,0,0,1,0,2.09A1.54,1.54,0,0,1,124.38,3.84Zm-1.1,16.55V6.21h2.18V20.39Z"/><path class="cls-2" d="M135.39,20.68a6.58,6.58,0,0,1-3.53-.91,5.89,5.89,0,0,1-2.28-2.55,8.62,8.62,0,0,1-.8-3.81,8.83,8.83,0,0,1,.8-3.85A6.25,6.25,0,0,1,131.81,7,6,6,0,0,1,135.17,6a6.63,6.63,0,0,1,2.19.37,5.47,5.47,0,0,1,2,1.19,5.86,5.86,0,0,1,1.42,2.19,9.3,9.3,0,0,1,.52,3.34V14H130.33V12.15h8.72a4.65,4.65,0,0,0-.48-2.14,3.67,3.67,0,0,0-1.35-1.49A3.8,3.8,0,0,0,135.17,8a3.89,3.89,0,0,0-2.25.64,4.26,4.26,0,0,0-1.45,1.67,4.83,4.83,0,0,0-.51,2.19v1.26a6,6,0,0,0,.56,2.72,4,4,0,0,0,1.55,1.69,4.61,4.61,0,0,0,2.32.57,4.82,4.82,0,0,0,1.56-.24,3.23,3.23,0,0,0,1.2-.74,3.39,3.39,0,0,0,.79-1.23l2.1.59A4.58,4.58,0,0,1,139.92,19,5.2,5.2,0,0,1,138,20.23,7,7,0,0,1,135.39,20.68Zm-1.33-16.4L136.31,0h2.55L136,4.28Z"/><path class="cls-2" d="M144.59,20.39V6.21h2.1V8.35h.15a3.47,3.47,0,0,1,1.4-1.71A4.12,4.12,0,0,1,150.53,6h.6l.55,0V8.24l-.51-.09a5.36,5.36,0,0,0-.82-.06,3.79,3.79,0,0,0-1.84.43,3.24,3.24,0,0,0-1.28,1.18,3.17,3.17,0,0,0-.46,1.71v9Z"/><path class="cls-2" d="M159.58,20.68a6.1,6.1,0,0,1-3.43-.94,6.18,6.18,0,0,1-2.22-2.59,8.78,8.78,0,0,1-.78-3.78,8.75,8.75,0,0,1,.8-3.82A6.3,6.3,0,0,1,156.19,7,5.93,5.93,0,0,1,159.54,6a6.51,6.51,0,0,1,2.7.55,5.15,5.15,0,0,1,2,1.56,4.9,4.9,0,0,1,.95,2.32H163a3.51,3.51,0,0,0-1.1-1.72,3.37,3.37,0,0,0-2.3-.75,3.83,3.83,0,0,0-2.23.66,4.38,4.38,0,0,0-1.49,1.85,6.94,6.94,0,0,0-.53,2.81,7.37,7.37,0,0,0,.52,2.86,4.42,4.42,0,0,0,1.48,1.89,4.16,4.16,0,0,0,3.79.38,3.21,3.21,0,0,0,1.17-.85,3.31,3.31,0,0,0,.69-1.33h2.18a5,5,0,0,1-2.82,3.85A6.16,6.16,0,0,1,159.58,20.68Z"/><path class="cls-2" d="M174.09,20.68a6,6,0,0,1-5.61-3.47,8.58,8.58,0,0,1-.81-3.84,8.69,8.69,0,0,1,.81-3.87,6.14,6.14,0,0,1,2.25-2.57,6.21,6.21,0,0,1,9,2.57,8.69,8.69,0,0,1,.81,3.87,8.58,8.58,0,0,1-.81,3.84,6,6,0,0,1-5.62,3.47Zm0-2A3.75,3.75,0,0,0,176.5,18a4.48,4.48,0,0,0,1.39-2,7.54,7.54,0,0,0,.45-2.64,7.64,7.64,0,0,0-.45-2.65,4.55,4.55,0,0,0-1.39-2,4.23,4.23,0,0,0-4.81,0,4.55,4.55,0,0,0-1.39,2,7.64,7.64,0,0,0-.45,2.65A7.54,7.54,0,0,0,170.3,16a4.48,4.48,0,0,0,1.39,2A3.74,3.74,0,0,0,174.09,18.72Z"/><path class="cls-2" d="M186,1.48V20.39h-2.18V1.48Z"/><path class="cls-2" d="M196,20.68a6.55,6.55,0,0,1-3.53-.91,5.89,5.89,0,0,1-2.28-2.55,8.48,8.48,0,0,1-.8-3.81,8.69,8.69,0,0,1,.8-3.85A6.18,6.18,0,0,1,192.38,7,6,6,0,0,1,195.74,6a6.57,6.57,0,0,1,2.18.37,5.51,5.51,0,0,1,2,1.19,5.84,5.84,0,0,1,1.41,2.19,9.28,9.28,0,0,1,.53,3.34V14H190.9V12.15h8.71a4.65,4.65,0,0,0-.47-2.14,3.74,3.74,0,0,0-1.35-1.49,3.82,3.82,0,0,0-2-.54,3.89,3.89,0,0,0-2.25.64A4.28,4.28,0,0,0,192,10.29a5,5,0,0,0-.5,2.19v1.26a6.05,6.05,0,0,0,.55,2.72,4.06,4.06,0,0,0,1.56,1.69,4.61,4.61,0,0,0,2.32.57,4.71,4.71,0,0,0,1.55-.24,3.19,3.19,0,0,0,1.21-.74,3.24,3.24,0,0,0,.78-1.23l2.11.59A4.69,4.69,0,0,1,200.49,19a5.2,5.2,0,0,1-1.94,1.25A7.07,7.07,0,0,1,196,20.68Z"/><path class="cls-2" d="M215.2,9.38l-2,.55A3.66,3.66,0,0,0,212.7,9a2.75,2.75,0,0,0-1-.77,3.41,3.41,0,0,0-1.56-.31,3.73,3.73,0,0,0-2.17.6,1.79,1.79,0,0,0-.86,1.51,1.55,1.55,0,0,0,.59,1.28,4.82,4.82,0,0,0,1.85.79l2.1.51A5.92,5.92,0,0,1,214.53,14a3.32,3.32,0,0,1,.93,2.43,3.57,3.57,0,0,1-.7,2.18,4.67,4.67,0,0,1-1.94,1.52,7.08,7.08,0,0,1-2.9.55,6.33,6.33,0,0,1-3.59-.94,4.15,4.15,0,0,1-1.8-2.75l2.06-.52a2.88,2.88,0,0,0,1.13,1.72,3.73,3.73,0,0,0,2.16.57,4.06,4.06,0,0,0,2.42-.65,1.87,1.87,0,0,0,.91-1.56,1.7,1.7,0,0,0-.52-1.25,3.47,3.47,0,0,0-1.59-.75L208.74,14a5.58,5.58,0,0,1-2.86-1.44,3.42,3.42,0,0,1-.91-2.44A3.49,3.49,0,0,1,205.65,8a4.5,4.5,0,0,1,1.85-1.45A6.54,6.54,0,0,1,210.18,6a5.38,5.38,0,0,1,3.31.92A5,5,0,0,1,215.2,9.38Z"/><path class="cls-2" d="M227.46,25.71a4.91,4.91,0,0,1-1-.09,3.15,3.15,0,0,1-.6-.17l.56-1.92a4.2,4.2,0,0,0,1.4.14,1.61,1.61,0,0,0,1.08-.54,4.42,4.42,0,0,0,.88-1.56l.4-1.11L225,6.21h2.36l3.92,11.3h.15l3.91-11.3h2.36l-6,16.25a6.29,6.29,0,0,1-1,1.82,3.83,3.83,0,0,1-1.39,1.07A4.26,4.26,0,0,1,227.46,25.71Z"/><path class="cls-2" d="M247.85,6.21H250V21.42a5.31,5.31,0,0,1-.45,2.27,3.31,3.31,0,0,1-1.35,1.49,4.46,4.46,0,0,1-2.27.53h-.44v-2h.41a1.72,1.72,0,0,0,1.45-.58,2.63,2.63,0,0,0,.47-1.67Zm1.07-2.37a1.54,1.54,0,0,1-1.1-.43,1.41,1.41,0,0,1-.45-1.05,1.4,1.4,0,0,1,.45-1,1.54,1.54,0,0,1,1.1-.43,1.52,1.52,0,0,1,1.09.43,1.38,1.38,0,0,1,.46,1A1.38,1.38,0,0,1,250,3.41,1.52,1.52,0,0,1,248.92,3.84Z"/><path class="cls-2" d="M263,14.59V6.21h2.18V20.39H263V18h-.15a4.59,4.59,0,0,1-1.55,1.83,4.45,4.45,0,0,1-2.66.75,4.72,4.72,0,0,1-2.36-.58,4.07,4.07,0,0,1-1.62-1.78,6.6,6.6,0,0,1-.6-3v-9h2.18v8.86a3.41,3.41,0,0,0,.88,2.47,2.91,2.91,0,0,0,2.23.93,3.83,3.83,0,0,0,3.08-1.69A3.92,3.92,0,0,0,263,14.59Z"/><path class="cls-2" d="M275.07,20.68a6.61,6.61,0,0,1-3.54-.91,6,6,0,0,1-2.28-2.55,8.62,8.62,0,0,1-.8-3.81,8.83,8.83,0,0,1,.8-3.85A6.27,6.27,0,0,1,271.49,7,5.93,5.93,0,0,1,274.84,6a6.63,6.63,0,0,1,2.19.37,5.51,5.51,0,0,1,2,1.19,5.84,5.84,0,0,1,1.41,2.19,9.28,9.28,0,0,1,.53,3.34V14H270V12.15h8.71a4.78,4.78,0,0,0-.47-2.14,3.74,3.74,0,0,0-1.35-1.49A3.84,3.84,0,0,0,274.84,8a3.88,3.88,0,0,0-2.24.64,4.21,4.21,0,0,0-1.46,1.67,4.83,4.83,0,0,0-.51,2.19v1.26a6,6,0,0,0,.56,2.72,3.94,3.94,0,0,0,1.56,1.69,4.59,4.59,0,0,0,2.32.57,4.71,4.71,0,0,0,1.55-.24,3.19,3.19,0,0,0,1.21-.74,3.37,3.37,0,0,0,.78-1.23l2.11.59A4.81,4.81,0,0,1,279.6,19a5.2,5.2,0,0,1-1.94,1.25A7.07,7.07,0,0,1,275.07,20.68Z"/><path class="cls-2" d="M295.41,6.21l-5.24,14.18H288L282.71,6.21h2.36L289,17.51h.15l3.91-11.3Z"/><path class="cls-2" d="M303.72,20.68a6.6,6.6,0,0,1-3.53-.91,5.89,5.89,0,0,1-2.28-2.55,8.62,8.62,0,0,1-.8-3.81,8.83,8.83,0,0,1,.8-3.85A6.2,6.2,0,0,1,300.15,7,5.93,5.93,0,0,1,303.5,6a6.63,6.63,0,0,1,2.19.37,5.51,5.51,0,0,1,2,1.19,5.84,5.84,0,0,1,1.41,2.19,9.28,9.28,0,0,1,.53,3.34V14H298.66V12.15h8.72A4.65,4.65,0,0,0,306.9,10a3.64,3.64,0,0,0-1.34-1.49A3.84,3.84,0,0,0,303.5,8a3.91,3.91,0,0,0-2.25.64,4.26,4.26,0,0,0-1.45,1.67,4.83,4.83,0,0,0-.51,2.19v1.26a6,6,0,0,0,.56,2.72,3.94,3.94,0,0,0,1.56,1.69,4.55,4.55,0,0,0,2.31.57,4.77,4.77,0,0,0,1.56-.24,3.15,3.15,0,0,0,1.2-.74,3.39,3.39,0,0,0,.79-1.23l2.1.59A4.67,4.67,0,0,1,308.26,19a5.28,5.28,0,0,1-1.94,1.25A7.13,7.13,0,0,1,303.72,20.68Z"/><path class="cls-2" d="M323,9.38l-2,.55a4,4,0,0,0-.54-.95,2.7,2.7,0,0,0-1-.77,3.36,3.36,0,0,0-1.56-.31,3.67,3.67,0,0,0-2.16.6,1.78,1.78,0,0,0-.87,1.51,1.53,1.53,0,0,0,.6,1.28,4.76,4.76,0,0,0,1.84.79l2.11.51A5.83,5.83,0,0,1,322.29,14a3.32,3.32,0,0,1,.93,2.43,3.63,3.63,0,0,1-.69,2.18,4.77,4.77,0,0,1-1.95,1.52,7,7,0,0,1-2.9.55,6.37,6.37,0,0,1-3.59-.94,4.15,4.15,0,0,1-1.8-2.75l2.07-.52a2.86,2.86,0,0,0,1.12,1.72,3.74,3.74,0,0,0,2.17.57,4.08,4.08,0,0,0,2.42-.65,1.88,1.88,0,0,0,.9-1.56,1.66,1.66,0,0,0-.52-1.25,3.38,3.38,0,0,0-1.58-.75L316.5,14a5.54,5.54,0,0,1-2.85-1.44,3.42,3.42,0,0,1-.91-2.44A3.48,3.48,0,0,1,313.41,8a4.53,4.53,0,0,1,1.86-1.45A6.49,6.49,0,0,1,317.94,6a5.34,5.34,0,0,1,3.31.92A5,5,0,0,1,323,9.38Z"/></g></g><g id="_20:00_a_00:00_h" data-name=" 20:00 a 00:00 h" class="cls-1"><g class="cls-1"><path class="cls-2" d="M71.1,84.39V82.72l6.24-6.83c.73-.8,1.34-1.49,1.81-2.09a7.69,7.69,0,0,0,1.06-1.68,4.11,4.11,0,0,0,.34-1.66,3,3,0,0,0-.47-1.72,3.18,3.18,0,0,0-1.3-1.13,4.26,4.26,0,0,0-1.85-.4,3.83,3.83,0,0,0-1.89.45,3.13,3.13,0,0,0-1.25,1.25,3.94,3.94,0,0,0-.44,1.89H71.17a5.51,5.51,0,0,1,.77-2.92,5.33,5.33,0,0,1,2.09-2,6.24,6.24,0,0,1,3-.7,6,6,0,0,1,2.94.7,5.33,5.33,0,0,1,2,1.89,5.05,5.05,0,0,1,.73,2.65,5.72,5.72,0,0,1-.38,2A9.24,9.24,0,0,1,81,74.71c-.61.81-1.46,1.79-2.54,3l-4.25,4.54v.15H83v2Z"/><path class="cls-2" d="M93,84.65a5.59,5.59,0,0,1-3.56-1.15,7.08,7.08,0,0,1-2.24-3.31,15.65,15.65,0,0,1-.77-5.26,15.59,15.59,0,0,1,.78-5.24,7.1,7.1,0,0,1,2.25-3.32,6,6,0,0,1,7.08,0,7.1,7.1,0,0,1,2.25,3.32,15.59,15.59,0,0,1,.78,5.24,15.91,15.91,0,0,1-.77,5.26,7,7,0,0,1-2.25,3.31A5.54,5.54,0,0,1,93,84.65Zm0-2a3.53,3.53,0,0,0,3.21-2,11.49,11.49,0,0,0,1.15-5.69,14.85,14.85,0,0,0-.52-4.18,5.8,5.8,0,0,0-1.5-2.63A3.29,3.29,0,0,0,93,67.21a3.54,3.54,0,0,0-3.2,2,11.6,11.6,0,0,0-1.16,5.7,14.49,14.49,0,0,0,.52,4.18,5.67,5.67,0,0,0,1.49,2.61A3.33,3.33,0,0,0,93,82.61Z"/><path class="cls-2" d="M104.71,74a1.6,1.6,0,0,1-1.18-.49,1.66,1.66,0,1,1,2.35-2.35,1.64,1.64,0,0,1,.26,2,1.72,1.72,0,0,1-.6.6A1.6,1.6,0,0,1,104.71,74Zm0,10.52A1.67,1.67,0,0,1,103,82.87a1.63,1.63,0,0,1,.49-1.17,1.66,1.66,0,0,1,2.61,2,1.67,1.67,0,0,1-.6.61A1.59,1.59,0,0,1,104.71,84.53Z"/><path class="cls-2" d="M116.41,84.65a5.56,5.56,0,0,1-3.55-1.15,6.94,6.94,0,0,1-2.24-3.31,18.06,18.06,0,0,1,0-10.5,7.1,7.1,0,0,1,2.25-3.32,6,6,0,0,1,7.08,0,7,7,0,0,1,2.26,3.32,18.06,18.06,0,0,1,0,10.5A7,7,0,0,1,120,83.5,5.59,5.59,0,0,1,116.41,84.65Zm0-2a3.56,3.56,0,0,0,3.22-2,11.61,11.61,0,0,0,1.14-5.69,14.49,14.49,0,0,0-.52-4.18,5.8,5.8,0,0,0-1.5-2.63,3.29,3.29,0,0,0-2.34-.91,3.56,3.56,0,0,0-3.2,2,11.61,11.61,0,0,0-1.15,5.7,14.88,14.88,0,0,0,.51,4.18,5.76,5.76,0,0,0,1.49,2.61A3.34,3.34,0,0,0,116.41,82.61Z"/><path class="cls-2" d="M132.66,84.65a5.56,5.56,0,0,1-3.55-1.15,6.94,6.94,0,0,1-2.24-3.31,18.06,18.06,0,0,1,0-10.5,7.1,7.1,0,0,1,2.25-3.32,6,6,0,0,1,7.08,0,7,7,0,0,1,2.26,3.32,18.06,18.06,0,0,1,0,10.5,7,7,0,0,1-2.24,3.31A5.59,5.59,0,0,1,132.66,84.65Zm0-2a3.56,3.56,0,0,0,3.22-2A11.61,11.61,0,0,0,137,74.93a14.49,14.49,0,0,0-.52-4.18,5.8,5.8,0,0,0-1.5-2.63,3.29,3.29,0,0,0-2.34-.91,3.56,3.56,0,0,0-3.2,2,11.61,11.61,0,0,0-1.15,5.7,14.88,14.88,0,0,0,.51,4.18,5.76,5.76,0,0,0,1.49,2.61A3.34,3.34,0,0,0,132.66,82.61Z"/><path class="cls-2" d="M154.27,84.72a5.74,5.74,0,0,1-2.45-.51,4.14,4.14,0,0,1-1.74-1.49,4.19,4.19,0,0,1-.65-2.36,3.67,3.67,0,0,1,.48-2,3.43,3.43,0,0,1,1.28-1.2,7.51,7.51,0,0,1,1.78-.65c.65-.14,1.3-.26,2-.34l2.1-.26a3,3,0,0,0,1.19-.3.78.78,0,0,0,.37-.73v-.08a2.91,2.91,0,0,0-.74-2.12,3,3,0,0,0-2.25-.76,4,4,0,0,0-2.45.68,4.12,4.12,0,0,0-1.24,1.46l-2.07-.74a4.94,4.94,0,0,1,1.48-2,5.4,5.4,0,0,1,2-1,8.7,8.7,0,0,1,2.17-.29,8.79,8.79,0,0,1,1.58.16,5.32,5.32,0,0,1,1.73.66,3.84,3.84,0,0,1,1.38,1.51,5.58,5.58,0,0,1,.56,2.69v9.35h-2.18V82.47h-.11a4.12,4.12,0,0,1-.74,1,4.23,4.23,0,0,1-1.38.9A5.21,5.21,0,0,1,154.27,84.72Zm.33-2a4.31,4.31,0,0,0,2.18-.51,3.34,3.34,0,0,0,1.35-1.31,3.31,3.31,0,0,0,.46-1.69v-2a1.25,1.25,0,0,1-.61.3,7.91,7.91,0,0,1-1.07.23l-1.17.17-.92.11a8.49,8.49,0,0,0-1.58.36,2.67,2.67,0,0,0-1.18.73,1.84,1.84,0,0,0-.45,1.31,1.93,1.93,0,0,0,.84,1.71A3.71,3.71,0,0,0,154.6,82.76Z"/><path class="cls-2" d="M178.2,84.65a5.54,5.54,0,0,1-3.55-1.15,7,7,0,0,1-2.25-3.31,15.91,15.91,0,0,1-.77-5.26,15.59,15.59,0,0,1,.78-5.24,7.1,7.1,0,0,1,2.25-3.32,6,6,0,0,1,7.08,0A7.1,7.1,0,0,1,184,69.69a15.59,15.59,0,0,1,.78,5.24,15.65,15.65,0,0,1-.77,5.26,7.08,7.08,0,0,1-2.24,3.31A5.59,5.59,0,0,1,178.2,84.65Zm0-2a3.53,3.53,0,0,0,3.21-2,11.49,11.49,0,0,0,1.15-5.69,14.85,14.85,0,0,0-.52-4.18,5.8,5.8,0,0,0-1.5-2.63,3.29,3.29,0,0,0-2.34-.91,3.55,3.55,0,0,0-3.2,2,11.6,11.6,0,0,0-1.16,5.7,14.85,14.85,0,0,0,.52,4.18,5.67,5.67,0,0,0,1.49,2.61A3.33,3.33,0,0,0,178.2,82.61Z"/><path class="cls-2" d="M194.45,84.65a5.54,5.54,0,0,1-3.55-1.15,7,7,0,0,1-2.25-3.31,15.91,15.91,0,0,1-.77-5.26,15.59,15.59,0,0,1,.78-5.24,7.1,7.1,0,0,1,2.25-3.32,6,6,0,0,1,7.08,0,7.1,7.1,0,0,1,2.25,3.32,15.59,15.59,0,0,1,.78,5.24,15.65,15.65,0,0,1-.77,5.26A7.08,7.08,0,0,1,198,83.5,5.59,5.59,0,0,1,194.45,84.65Zm0-2a3.53,3.53,0,0,0,3.21-2,11.49,11.49,0,0,0,1.15-5.69,14.85,14.85,0,0,0-.52-4.18,5.8,5.8,0,0,0-1.5-2.63,3.29,3.29,0,0,0-2.34-.91,3.55,3.55,0,0,0-3.2,2,11.6,11.6,0,0,0-1.16,5.7,14.85,14.85,0,0,0,.52,4.18,5.67,5.67,0,0,0,1.49,2.61A3.33,3.33,0,0,0,194.45,82.61Z"/><path class="cls-2" d="M206.16,74a1.56,1.56,0,0,1-1.17-.49,1.67,1.67,0,0,1,1.17-2.84,1.63,1.63,0,0,1,1.17.49,1.64,1.64,0,0,1,.26,2,1.72,1.72,0,0,1-.6.6A1.57,1.57,0,0,1,206.16,74Zm0,10.52a1.67,1.67,0,0,1-1.66-1.66A1.59,1.59,0,0,1,205,81.7a1.56,1.56,0,0,1,1.17-.49,1.65,1.65,0,0,1,1.43,2.49,1.67,1.67,0,0,1-.6.61A1.56,1.56,0,0,1,206.16,84.53Z"/><path class="cls-2" d="M217.87,84.65a5.57,5.57,0,0,1-3.56-1.15,6.94,6.94,0,0,1-2.24-3.31,18.06,18.06,0,0,1,0-10.5,7.1,7.1,0,0,1,2.25-3.32,6,6,0,0,1,7.09,0,7.1,7.1,0,0,1,2.25,3.32,18.06,18.06,0,0,1,0,10.5,6.94,6.94,0,0,1-2.24,3.31A5.56,5.56,0,0,1,217.87,84.65Zm0-2a3.55,3.55,0,0,0,3.21-2,11.61,11.61,0,0,0,1.14-5.69,14.49,14.49,0,0,0-.52-4.18,5.88,5.88,0,0,0-1.49-2.63,3.29,3.29,0,0,0-2.34-.91,3.57,3.57,0,0,0-3.21,2,11.61,11.61,0,0,0-1.15,5.7,14.88,14.88,0,0,0,.51,4.18,5.77,5.77,0,0,0,1.5,2.61A3.31,3.31,0,0,0,217.87,82.61Z"/><path class="cls-2" d="M234.12,84.65a5.57,5.57,0,0,1-3.56-1.15,6.94,6.94,0,0,1-2.24-3.31,18.06,18.06,0,0,1,0-10.5,7.1,7.1,0,0,1,2.25-3.32,6,6,0,0,1,7.09,0,7.1,7.1,0,0,1,2.25,3.32,18.06,18.06,0,0,1,0,10.5,6.94,6.94,0,0,1-2.24,3.31A5.56,5.56,0,0,1,234.12,84.65Zm0-2a3.55,3.55,0,0,0,3.21-2,11.61,11.61,0,0,0,1.14-5.69,14.49,14.49,0,0,0-.52-4.18,5.88,5.88,0,0,0-1.49-2.63,3.29,3.29,0,0,0-2.34-.91,3.57,3.57,0,0,0-3.21,2,11.61,11.61,0,0,0-1.15,5.7,14.88,14.88,0,0,0,.51,4.18,5.77,5.77,0,0,0,1.5,2.61A3.31,3.31,0,0,0,234.12,82.61Z"/><path class="cls-2" d="M253.73,75.86v8.53h-2.18V65.48h2.18v6.94h.18a4,4,0,0,1,1.5-1.75,4.88,4.88,0,0,1,2.67-.65,5.26,5.26,0,0,1,2.54.58,4,4,0,0,1,1.7,1.76,6.68,6.68,0,0,1,.6,3v9h-2.18V75.52a3.66,3.66,0,0,0-.87-2.61,3.15,3.15,0,0,0-2.41-.93,4,4,0,0,0-1.92.45,3.25,3.25,0,0,0-1.33,1.32A4.3,4.3,0,0,0,253.73,75.86Z"/></g></g><g id="Grupo_953" data-name="Grupo 953"><line id="Línea_4" data-name="Línea 4" class="cls-3" x1="164.53" y1="38.89" x2="178.53" y2="52.89"/><line id="Línea_5" data-name="Línea 5" class="cls-3" x1="178.53" y1="38.89" x2="164.53" y2="52.89"/></g></g></g></svg>