<svg xmlns="http://www.w3.org/2000/svg" viewBox="0 0 223.95 84.72"><defs><style>.cls-1{isolation:isolate;}.cls-2{fill:#fff;}.cls-3{fill:none;stroke:#e6332a;stroke-linecap:round;stroke-width:2px;}</style></defs><g id="Capa_2" data-name="Capa 2"><g id="Capa_1-2" data-name="Capa 1"><g class="cls-1"><path class="cls-2" d="M2.4,1.48,8,17.4h.23L13.85,1.48h2.4L9.31,20.39H6.94L0,1.48Z"/><path class="cls-2" d="M20,3.84a1.54,1.54,0,0,1-1.1-.43,1.41,1.41,0,0,1-.45-1.05,1.4,1.4,0,0,1,.45-1A1.54,1.54,0,0,1,20,.89a1.52,1.52,0,0,1,1.09.43,1.38,1.38,0,0,1,.46,1,1.38,1.38,0,0,1-.46,1.05A1.52,1.52,0,0,1,20,3.84ZM18.91,20.39V6.21h2.18V20.39Z"/><path class="cls-2" d="M31,20.68a6.6,6.6,0,0,1-3.53-.91,5.89,5.89,0,0,1-2.28-2.55,8.62,8.62,0,0,1-.8-3.81,8.83,8.83,0,0,1,.8-3.85A6.2,6.2,0,0,1,27.45,7,5.93,5.93,0,0,1,30.8,6,6.63,6.63,0,0,1,33,6.39a5.51,5.51,0,0,1,2,1.19,5.84,5.84,0,0,1,1.41,2.19,9.28,9.28,0,0,1,.53,3.34V14H26V12.15h8.72A4.65,4.65,0,0,0,34.2,10a3.64,3.64,0,0,0-1.34-1.49,4.24,4.24,0,0,0-4.31.1,4.26,4.26,0,0,0-1.45,1.67,4.83,4.83,0,0,0-.51,2.19v1.26a6,6,0,0,0,.56,2.72,3.94,3.94,0,0,0,1.56,1.69,4.55,4.55,0,0,0,2.31.57,4.77,4.77,0,0,0,1.56-.24,3.23,3.23,0,0,0,1.2-.74,3.39,3.39,0,0,0,.79-1.23l2.1.59A4.67,4.67,0,0,1,35.56,19a5.28,5.28,0,0,1-1.94,1.25A7.13,7.13,0,0,1,31,20.68Z"/><path class="cls-2" d="M40.22,20.39V6.21h2.1V8.35h.15a3.47,3.47,0,0,1,1.4-1.71A4.12,4.12,0,0,1,46.16,6h.6l.55,0V8.24l-.5-.09A5.59,5.59,0,0,0,46,8.09a3.82,3.82,0,0,0-1.84.43A3.24,3.24,0,0,0,42.86,9.7a3.17,3.17,0,0,0-.46,1.71v9Z"/><path class="cls-2" d="M52.07,11.86v8.53H49.89V6.21H52V8.42h.18A4.12,4.12,0,0,1,53.7,6.68,4.73,4.73,0,0,1,56.32,6a5.21,5.21,0,0,1,2.52.59,4,4,0,0,1,1.68,1.77,6.62,6.62,0,0,1,.6,3v9H58.94V11.52a3.71,3.71,0,0,0-.86-2.6A3.09,3.09,0,0,0,55.69,8a3.82,3.82,0,0,0-1.86.45,3.28,3.28,0,0,0-1.29,1.32A4.41,4.41,0,0,0,52.07,11.86Z"/><path class="cls-2" d="M71.06,20.68a6.61,6.61,0,0,1-3.54-.91,6,6,0,0,1-2.28-2.55,8.62,8.62,0,0,1-.79-3.81,8.83,8.83,0,0,1,.79-3.85A6.27,6.27,0,0,1,67.48,7,6,6,0,0,1,70.83,6,6.63,6.63,0,0,1,73,6.39a5.51,5.51,0,0,1,2,1.19A5.84,5.84,0,0,1,76.4,9.77a9.28,9.28,0,0,1,.53,3.34V14H66V12.15h8.71A4.78,4.78,0,0,0,74.24,10a3.74,3.74,0,0,0-1.35-1.49A3.84,3.84,0,0,0,70.83,8a3.88,3.88,0,0,0-2.24.64,4.28,4.28,0,0,0-1.46,1.67,4.83,4.83,0,0,0-.51,2.19v1.26a6,6,0,0,0,.56,2.72,4,4,0,0,0,1.56,1.69,4.59,4.59,0,0,0,2.32.57,4.71,4.71,0,0,0,1.55-.24,3.19,3.19,0,0,0,1.21-.74,3.24,3.24,0,0,0,.78-1.23l2.11.59A4.81,4.81,0,0,1,75.59,19a5.2,5.2,0,0,1-1.94,1.25A7.07,7.07,0,0,1,71.06,20.68Z"/><path class="cls-2" d="M90.3,9.38l-2,.55A3.66,3.66,0,0,0,87.8,9a2.75,2.75,0,0,0-1-.77,3.43,3.43,0,0,0-1.57-.31,3.72,3.72,0,0,0-2.16.6A1.77,1.77,0,0,0,82.25,10a1.53,1.53,0,0,0,.59,1.28,4.83,4.83,0,0,0,1.84.79l2.11.51A5.83,5.83,0,0,1,89.62,14a3.29,3.29,0,0,1,.94,2.43,3.64,3.64,0,0,1-.7,2.18,4.73,4.73,0,0,1-1.94,1.52,7.11,7.11,0,0,1-2.9.55,6.38,6.38,0,0,1-3.6-.94A4.23,4.23,0,0,1,79.62,17l2.07-.52a2.86,2.86,0,0,0,1.12,1.72,3.78,3.78,0,0,0,2.17.57,4.06,4.06,0,0,0,2.42-.65,1.88,1.88,0,0,0,.9-1.56,1.69,1.69,0,0,0-.51-1.25,3.47,3.47,0,0,0-1.59-.75L83.83,14A5.58,5.58,0,0,1,81,12.56a3.42,3.42,0,0,1-.91-2.44A3.42,3.42,0,0,1,80.75,8,4.5,4.5,0,0,1,82.6,6.55,6.53,6.53,0,0,1,85.27,6a5.34,5.34,0,0,1,3.31.92A5,5,0,0,1,90.3,9.38Z"/><path class="cls-2" d="M102.56,25.71a4.91,4.91,0,0,1-1-.09,3.15,3.15,0,0,1-.6-.17l.55-1.92a4.26,4.26,0,0,0,1.41.14,1.63,1.63,0,0,0,1.08-.54,4.42,4.42,0,0,0,.88-1.56l.4-1.11L100.05,6.21h2.36l3.92,11.3h.14l3.92-11.3h2.36l-6,16.25a6.29,6.29,0,0,1-1,1.82,3.83,3.83,0,0,1-1.39,1.07A4.26,4.26,0,0,1,102.56,25.71Z"/><path class="cls-2" d="M133,9.38l-2,.55a3.66,3.66,0,0,0-.54-.95,2.66,2.66,0,0,0-1-.77A3.41,3.41,0,0,0,128,7.9a3.73,3.73,0,0,0-2.17.6,1.79,1.79,0,0,0-.86,1.51,1.55,1.55,0,0,0,.59,1.28,4.82,4.82,0,0,0,1.85.79l2.1.51A5.92,5.92,0,0,1,132.32,14a3.32,3.32,0,0,1,.93,2.43,3.57,3.57,0,0,1-.7,2.18,4.67,4.67,0,0,1-1.94,1.52,7.08,7.08,0,0,1-2.9.55,6.35,6.35,0,0,1-3.59-.94,4.15,4.15,0,0,1-1.8-2.75l2.07-.52a2.82,2.82,0,0,0,1.12,1.72,3.73,3.73,0,0,0,2.16.57,4.09,4.09,0,0,0,2.43-.65,1.88,1.88,0,0,0,.9-1.56,1.7,1.7,0,0,0-.52-1.25,3.47,3.47,0,0,0-1.59-.75L126.53,14a5.62,5.62,0,0,1-2.86-1.44,3.42,3.42,0,0,1-.91-2.44A3.49,3.49,0,0,1,123.44,8a4.5,4.5,0,0,1,1.85-1.45A6.54,6.54,0,0,1,128,6a5.38,5.38,0,0,1,3.31.92A5,5,0,0,1,133,9.38Z"/><path class="cls-2" d="M140.71,20.72a5.74,5.74,0,0,1-2.45-.51,4.14,4.14,0,0,1-1.74-1.49,4.19,4.19,0,0,1-.65-2.36,3.67,3.67,0,0,1,.48-2,3.43,3.43,0,0,1,1.28-1.2,7.51,7.51,0,0,1,1.78-.65c.65-.14,1.31-.26,2-.34l2.1-.26a3,3,0,0,0,1.19-.3.76.76,0,0,0,.37-.73v-.08a2.91,2.91,0,0,0-.74-2.12A3,3,0,0,0,142,7.94a4,4,0,0,0-2.45.68,4.12,4.12,0,0,0-1.24,1.46l-2.07-.74a4.94,4.94,0,0,1,1.48-2,5.4,5.4,0,0,1,2-1A8.7,8.7,0,0,1,142,6a8.79,8.79,0,0,1,1.58.16,5.32,5.32,0,0,1,1.73.66,3.93,3.93,0,0,1,1.39,1.51,5.7,5.7,0,0,1,.55,2.69v9.35H145V18.47h-.11a3.87,3.87,0,0,1-.74,1,4.29,4.29,0,0,1-1.37.9A5.3,5.3,0,0,1,140.71,20.72Zm.33-2a4.38,4.38,0,0,0,2.19-.51,3.38,3.38,0,0,0,1.34-1.31,3.31,3.31,0,0,0,.46-1.69v-2a1.26,1.26,0,0,1-.6.3,8.43,8.43,0,0,1-1.08.23l-1.17.17-.92.11a8.49,8.49,0,0,0-1.58.36,2.67,2.67,0,0,0-1.18.73,1.84,1.84,0,0,0-.45,1.31,1.91,1.91,0,0,0,.85,1.71A3.65,3.65,0,0,0,141,18.76Zm.08-14.48L143.37,0h2.55L143,4.28Z"/><path class="cls-2" d="M151.49,20.39V1.48h2.18v7h.19c.16-.25.38-.56.67-1a3.78,3.78,0,0,1,1.23-1A4.42,4.42,0,0,1,158,6a5.59,5.59,0,0,1,3.15.9,5.91,5.91,0,0,1,2.14,2.54,9.06,9.06,0,0,1,.76,3.87,9.2,9.2,0,0,1-.76,3.9,6,6,0,0,1-2.13,2.55,5.53,5.53,0,0,1-3.13.9,4.57,4.57,0,0,1-2.19-.45,4.19,4.19,0,0,1-1.26-1.05,11.53,11.53,0,0,1-.68-1h-.26v2.18Zm2.14-7.09a7.73,7.73,0,0,0,.48,2.83A4.27,4.27,0,0,0,155.48,18a3.54,3.54,0,0,0,2.22.68A3.57,3.57,0,0,0,160,18a4.36,4.36,0,0,0,1.39-2,7.68,7.68,0,0,0,.46-2.74,7.74,7.74,0,0,0-.45-2.71A4.38,4.38,0,0,0,160,8.68a4.1,4.1,0,0,0-4.54,0,4,4,0,0,0-1.36,1.86A7.69,7.69,0,0,0,153.63,13.3Z"/><path class="cls-2" d="M171.51,20.72a5.78,5.78,0,0,1-2.45-.51,4.14,4.14,0,0,1-1.74-1.49,4.19,4.19,0,0,1-.65-2.36,3.67,3.67,0,0,1,.48-2,3.39,3.39,0,0,1,1.29-1.2,7.28,7.28,0,0,1,1.77-.65c.65-.14,1.31-.26,2-.34l2.11-.26a2.94,2.94,0,0,0,1.18-.3.76.76,0,0,0,.37-.73v-.08a2.91,2.91,0,0,0-.74-2.12,3,3,0,0,0-2.25-.76,4,4,0,0,0-2.45.68,4.12,4.12,0,0,0-1.24,1.46l-2.07-.74a4.94,4.94,0,0,1,1.48-2,5.48,5.48,0,0,1,2-1,8.1,8.1,0,0,1,3.75-.13,5.32,5.32,0,0,1,1.73.66,3.93,3.93,0,0,1,1.39,1.51A5.58,5.58,0,0,1,178,11v9.35h-2.18V18.47h-.11a3.87,3.87,0,0,1-.74,1,4.29,4.29,0,0,1-1.37.9A5.3,5.3,0,0,1,171.51,20.72Zm.33-2a4.38,4.38,0,0,0,2.19-.51,3.38,3.38,0,0,0,1.34-1.31,3.31,3.31,0,0,0,.46-1.69v-2a1.26,1.26,0,0,1-.6.3,8.26,8.26,0,0,1-1.07.23L173,14l-.92.11a8.49,8.49,0,0,0-1.58.36,2.67,2.67,0,0,0-1.18.73,1.84,1.84,0,0,0-.45,1.31,1.91,1.91,0,0,0,.85,1.71A3.65,3.65,0,0,0,171.84,18.76Z"/><path class="cls-2" d="M187.35,20.68a5.55,5.55,0,0,1-3.13-.9,6,6,0,0,1-2.12-2.55,9.2,9.2,0,0,1-.77-3.9,9.06,9.06,0,0,1,.77-3.87,5.89,5.89,0,0,1,2.13-2.54,5.62,5.62,0,0,1,3.16-.9,4.4,4.4,0,0,1,2.19.46,3.94,3.94,0,0,1,1.24,1c.29.39.51.7.67,1h.18v-7h2.18V20.39h-2.1V18.21h-.26c-.16.26-.39.58-.68,1a4.12,4.12,0,0,1-1.27,1.05A4.57,4.57,0,0,1,187.35,20.68Zm.3-2a3.53,3.53,0,0,0,2.21-.68,4.21,4.21,0,0,0,1.38-1.91,8,8,0,0,0,.47-2.83,7.7,7.7,0,0,0-.46-2.79,4,4,0,0,0-1.37-1.86A3.6,3.6,0,0,0,187.65,8a3.66,3.66,0,0,0-2.3.7A4.22,4.22,0,0,0,184,10.59a7.52,7.52,0,0,0-.46,2.71A7.68,7.68,0,0,0,184,16a4.42,4.42,0,0,0,1.38,2A3.62,3.62,0,0,0,187.65,18.72Z"/><path class="cls-2" d="M203.9,20.68a6,6,0,0,1-5.62-3.47,8.58,8.58,0,0,1-.81-3.84,8.69,8.69,0,0,1,.81-3.87,6.21,6.21,0,0,1,2.25-2.57,6.68,6.68,0,0,1,6.73,0,6.16,6.16,0,0,1,2.26,2.57,8.69,8.69,0,0,1,.8,3.87,8.58,8.58,0,0,1-.8,3.84,6,6,0,0,1-5.62,3.47Zm0-2a3.74,3.74,0,0,0,2.4-.74,4.4,4.4,0,0,0,1.39-2,7.32,7.32,0,0,0,.46-2.64,7.42,7.42,0,0,0-.46-2.65,4.47,4.47,0,0,0-1.39-2,4.22,4.22,0,0,0-4.8,0,4.56,4.56,0,0,0-1.4,2,7.64,7.64,0,0,0-.45,2.65A7.54,7.54,0,0,0,200.1,16a4.5,4.5,0,0,0,1.4,2A3.74,3.74,0,0,0,203.9,18.72Z"/><path class="cls-2" d="M223.69,9.38l-1.95.55A4.35,4.35,0,0,0,221.2,9a2.7,2.7,0,0,0-1-.77,3.36,3.36,0,0,0-1.56-.31,3.67,3.67,0,0,0-2.16.6,1.78,1.78,0,0,0-.87,1.51,1.55,1.55,0,0,0,.59,1.28,4.89,4.89,0,0,0,1.85.79l2.11.51A5.88,5.88,0,0,1,223,14a3.32,3.32,0,0,1,.93,2.43,3.63,3.63,0,0,1-.69,2.18,4.77,4.77,0,0,1-1.95,1.52,7.08,7.08,0,0,1-2.9.55,6.37,6.37,0,0,1-3.59-.94A4.15,4.15,0,0,1,213,17l2.07-.52a2.86,2.86,0,0,0,1.12,1.72,3.74,3.74,0,0,0,2.17.57,4.08,4.08,0,0,0,2.42-.65,1.88,1.88,0,0,0,.9-1.56,1.66,1.66,0,0,0-.52-1.25,3.37,3.37,0,0,0-1.59-.75L217.23,14a5.62,5.62,0,0,1-2.86-1.44,3.46,3.46,0,0,1-.91-2.44A3.49,3.49,0,0,1,214.14,8,4.53,4.53,0,0,1,216,6.55,6.46,6.46,0,0,1,218.67,6a5.36,5.36,0,0,1,3.31.92A5,5,0,0,1,223.69,9.38Z"/></g><g class="cls-1"><path class="cls-2" d="M20.52,84.39V82.72l6.24-6.83c.73-.8,1.33-1.49,1.81-2.09a7.62,7.62,0,0,0,1.05-1.68A4.12,4.12,0,0,0,30,70.46a3.12,3.12,0,0,0-.47-1.72,3.18,3.18,0,0,0-1.3-1.13,4.29,4.29,0,0,0-1.85-.4,3.87,3.87,0,0,0-1.9.45,3.17,3.17,0,0,0-1.24,1.25,3.94,3.94,0,0,0-.44,1.89H20.59a5.51,5.51,0,0,1,.77-2.92,5.26,5.26,0,0,1,2.09-2,6.21,6.21,0,0,1,3-.7,6,6,0,0,1,2.94.7,5.23,5.23,0,0,1,2,1.89,5,5,0,0,1,.73,2.65,5.71,5.71,0,0,1-.37,2,9.24,9.24,0,0,1-1.29,2.21c-.62.81-1.46,1.79-2.55,3l-4.24,4.54v.15h8.78v2Z"/><path class="cls-2" d="M42.42,84.65a5.57,5.57,0,0,1-3.56-1.15,6.94,6.94,0,0,1-2.24-3.31,18.06,18.06,0,0,1,0-10.5,7,7,0,0,1,2.26-3.32,6,6,0,0,1,7.08,0,7.1,7.1,0,0,1,2.25,3.32,18.06,18.06,0,0,1,0,10.5A6.94,6.94,0,0,1,46,83.5,5.56,5.56,0,0,1,42.42,84.65Zm0-2a3.54,3.54,0,0,0,3.21-2,11.61,11.61,0,0,0,1.14-5.69,14.49,14.49,0,0,0-.52-4.18,5.79,5.79,0,0,0-1.49-2.63,3.29,3.29,0,0,0-2.34-.91,3.57,3.57,0,0,0-3.21,2,11.61,11.61,0,0,0-1.15,5.7,14.49,14.49,0,0,0,.52,4.18,5.67,5.67,0,0,0,1.49,2.61A3.33,3.33,0,0,0,42.42,82.61Z"/><path class="cls-2" d="M54.12,74A1.66,1.66,0,0,1,53,71.17a1.67,1.67,0,0,1,2.84,1.18,1.6,1.6,0,0,1-.23.83,1.72,1.72,0,0,1-.6.6A1.6,1.6,0,0,1,54.12,74Zm0,10.52A1.59,1.59,0,0,1,53,84a1.56,1.56,0,0,1-.49-1.17A1.66,1.66,0,0,1,55.3,81.7a1.63,1.63,0,0,1,.49,1.17,1.6,1.6,0,0,1-.23.83,1.67,1.67,0,0,1-.6.61A1.6,1.6,0,0,1,54.12,84.53Z"/><path class="cls-2" d="M65.83,84.65a5.54,5.54,0,0,1-3.55-1.15A7,7,0,0,1,60,80.19a15.91,15.91,0,0,1-.77-5.26A15.59,15.59,0,0,1,60,69.69a7.1,7.1,0,0,1,2.25-3.32,6,6,0,0,1,7.08,0,7.1,7.1,0,0,1,2.25,3.32,15.59,15.59,0,0,1,.78,5.24,15.65,15.65,0,0,1-.77,5.26,7.08,7.08,0,0,1-2.24,3.31A5.59,5.59,0,0,1,65.83,84.65Zm0-2a3.53,3.53,0,0,0,3.21-2,11.49,11.49,0,0,0,1.15-5.69,14.85,14.85,0,0,0-.52-4.18,5.8,5.8,0,0,0-1.5-2.63,3.29,3.29,0,0,0-2.34-.91,3.55,3.55,0,0,0-3.2,2,11.6,11.6,0,0,0-1.16,5.7A14.85,14.85,0,0,0,62,79.11a5.67,5.67,0,0,0,1.49,2.61A3.33,3.33,0,0,0,65.83,82.61Z"/><path class="cls-2" d="M82.08,84.65a5.54,5.54,0,0,1-3.55-1.15,7,7,0,0,1-2.25-3.31,15.91,15.91,0,0,1-.77-5.26,15.59,15.59,0,0,1,.78-5.24,7.1,7.1,0,0,1,2.25-3.32,6,6,0,0,1,7.08,0,7.1,7.1,0,0,1,2.25,3.32,15.59,15.59,0,0,1,.78,5.24,15.65,15.65,0,0,1-.77,5.26,7.08,7.08,0,0,1-2.24,3.31A5.59,5.59,0,0,1,82.08,84.65Zm0-2a3.53,3.53,0,0,0,3.21-2,11.49,11.49,0,0,0,1.15-5.69,14.85,14.85,0,0,0-.52-4.18,5.8,5.8,0,0,0-1.5-2.63,3.29,3.29,0,0,0-2.34-.91,3.55,3.55,0,0,0-3.2,2,11.6,11.6,0,0,0-1.16,5.7,14.85,14.85,0,0,0,.52,4.18,5.67,5.67,0,0,0,1.49,2.61A3.33,3.33,0,0,0,82.08,82.61Z"/><path class="cls-2" d="M103.69,84.72a5.74,5.74,0,0,1-2.45-.51,4,4,0,0,1-2.39-3.85,3.67,3.67,0,0,1,.48-2,3.43,3.43,0,0,1,1.28-1.2,7.51,7.51,0,0,1,1.78-.65c.65-.14,1.3-.26,2-.34l2.1-.26a2.89,2.89,0,0,0,1.18-.3.77.77,0,0,0,.38-.73v-.08a2.87,2.87,0,0,0-.75-2.12,3,3,0,0,0-2.24-.76,4,4,0,0,0-2.45.68,4.16,4.16,0,0,0-1.25,1.46l-2.07-.74a5,5,0,0,1,1.49-2,5.33,5.33,0,0,1,2-1,8.64,8.64,0,0,1,2.17-.29,8.79,8.79,0,0,1,1.58.16,5.19,5.19,0,0,1,1.72.66,3.86,3.86,0,0,1,1.39,1.51,5.58,5.58,0,0,1,.56,2.69v9.35H108V82.47h-.11a4.12,4.12,0,0,1-.74,1,4.46,4.46,0,0,1-1.38.9A5.21,5.21,0,0,1,103.69,84.72Zm.33-2a4.31,4.31,0,0,0,2.18-.51,3.34,3.34,0,0,0,1.35-1.31,3.41,3.41,0,0,0,.46-1.69v-2a1.36,1.36,0,0,1-.61.3,8.26,8.26,0,0,1-1.07.23l-1.17.17-.92.11a8.31,8.31,0,0,0-1.58.36,2.7,2.7,0,0,0-1.19.73,1.89,1.89,0,0,0-.44,1.31,1.93,1.93,0,0,0,.84,1.71A3.69,3.69,0,0,0,104,82.76Z"/><path class="cls-2" d="M127.62,84.65a5.59,5.59,0,0,1-3.56-1.15,7,7,0,0,1-2.24-3.31,18.06,18.06,0,0,1,0-10.5,7,7,0,0,1,2.26-3.32,6,6,0,0,1,7.08,0,7.1,7.1,0,0,1,2.25,3.32,15.59,15.59,0,0,1,.78,5.24,15.91,15.91,0,0,1-.77,5.26,7,7,0,0,1-2.25,3.31A5.56,5.56,0,0,1,127.62,84.65Zm0-2a3.53,3.53,0,0,0,3.21-2A11.6,11.6,0,0,0,132,74.93a14.46,14.46,0,0,0-.53-4.18A5.7,5.7,0,0,0,130,68.12a3.29,3.29,0,0,0-2.34-.91,3.57,3.57,0,0,0-3.21,2,11.61,11.61,0,0,0-1.15,5.7,14.49,14.49,0,0,0,.52,4.18,5.67,5.67,0,0,0,1.49,2.61A3.33,3.33,0,0,0,127.62,82.61Z"/><path class="cls-2" d="M137.26,80.51V78.63l8.31-13.15h1.36V68.4H146l-6.28,9.93v.15h11.19v2Zm8.9,3.88V65.48h2.18V84.39Z"/><path class="cls-2" d="M156,74a1.56,1.56,0,0,1-1.17-.49A1.67,1.67,0,0,1,156,70.68a1.63,1.63,0,0,1,1.17.49,1.64,1.64,0,0,1,.26,2,1.72,1.72,0,0,1-.6.6A1.57,1.57,0,0,1,156,74Zm0,10.52a1.67,1.67,0,0,1-1.66-1.66,1.59,1.59,0,0,1,.49-1.17,1.56,1.56,0,0,1,1.17-.49,1.65,1.65,0,0,1,1.43,2.49,1.67,1.67,0,0,1-.6.61A1.56,1.56,0,0,1,156,84.53Z"/><path class="cls-2" d="M167.73,84.65a5.57,5.57,0,0,1-3.56-1.15,6.94,6.94,0,0,1-2.24-3.31,18.06,18.06,0,0,1,0-10.5,7.1,7.1,0,0,1,2.25-3.32,6,6,0,0,1,7.09,0,7.1,7.1,0,0,1,2.25,3.32,18.06,18.06,0,0,1,0,10.5,6.94,6.94,0,0,1-2.24,3.31A5.56,5.56,0,0,1,167.73,84.65Zm0-2a3.54,3.54,0,0,0,3.21-2,11.61,11.61,0,0,0,1.14-5.69,14.49,14.49,0,0,0-.52-4.18,5.79,5.79,0,0,0-1.49-2.63,3.29,3.29,0,0,0-2.34-.91,3.57,3.57,0,0,0-3.21,2,11.61,11.61,0,0,0-1.15,5.7,14.88,14.88,0,0,0,.51,4.18,5.77,5.77,0,0,0,1.5,2.61A3.31,3.31,0,0,0,167.73,82.61Z"/><path class="cls-2" d="M184,84.65a5.57,5.57,0,0,1-3.56-1.15,6.94,6.94,0,0,1-2.24-3.31,18.06,18.06,0,0,1,0-10.5,7.1,7.1,0,0,1,2.25-3.32,6,6,0,0,1,7.09,0,7.1,7.1,0,0,1,2.25,3.32,18.06,18.06,0,0,1,0,10.5,6.94,6.94,0,0,1-2.24,3.31A5.56,5.56,0,0,1,184,84.65Zm0-2a3.54,3.54,0,0,0,3.21-2,11.61,11.61,0,0,0,1.14-5.69,14.49,14.49,0,0,0-.52-4.18,5.79,5.79,0,0,0-1.49-2.63,3.29,3.29,0,0,0-2.34-.91,3.57,3.57,0,0,0-3.21,2,11.61,11.61,0,0,0-1.15,5.7,14.88,14.88,0,0,0,.51,4.18,5.77,5.77,0,0,0,1.5,2.61A3.31,3.31,0,0,0,184,82.61Z"/><path class="cls-2" d="M203.59,75.86v8.53h-2.18V65.48h2.18v6.94h.18a4,4,0,0,1,1.5-1.75,4.88,4.88,0,0,1,2.67-.65,5.26,5.26,0,0,1,2.54.58,4,4,0,0,1,1.7,1.76,6.68,6.68,0,0,1,.6,3v9H210.6V75.52a3.66,3.66,0,0,0-.87-2.61,3.15,3.15,0,0,0-2.41-.93,4,4,0,0,0-1.92.45,3.25,3.25,0,0,0-1.33,1.32A4.3,4.3,0,0,0,203.59,75.86Z"/></g><line id="Línea_4-2" data-name="Línea 4-2" class="cls-3" x1="114.17" y1="38.89" x2="128.17" y2="52.89"/><line id="Línea_5-2" data-name="Línea 5-2" class="cls-3" x1="128.17" y1="38.89" x2="114.17" y2="52.89"/></g></g></svg>