<svg xmlns="http://www.w3.org/2000/svg" viewBox="0 0 184.62 83.83"><defs><style>.cls-1{isolation:isolate;}.cls-2{fill:#fff;}.cls-3{fill:none;stroke:#e6332a;stroke-linecap:round;stroke-width:2px;}</style></defs><g id="Capa_2" data-name="Capa 2"><g id="Capa_1-2" data-name="Capa 1"><g id="Domingos_" data-name="Domingos " class="cls-1"><g class="cls-1"><path class="cls-2" d="M36.22,19.5H30.39V.59h6.09a9.33,9.33,0,0,1,4.71,1.13,7.59,7.59,0,0,1,3,3.24,11.37,11.37,0,0,1,1,5.05,11.37,11.37,0,0,1-1,5.08,7.42,7.42,0,0,1-3.07,3.27A9.77,9.77,0,0,1,36.22,19.5Zm-3.54-2h3.39A7.52,7.52,0,0,0,40,16.56,5.59,5.59,0,0,0,42.26,14,9.68,9.68,0,0,0,43,10a9.53,9.53,0,0,0-.75-3.95A5.57,5.57,0,0,0,40,3.51a7.11,7.11,0,0,0-3.7-.89H32.68Z"/><path class="cls-2" d="M54.54,19.8a6,6,0,0,1-5.62-3.48,8.55,8.55,0,0,1-.81-3.84,8.75,8.75,0,0,1,.81-3.87,6.23,6.23,0,0,1,11.24,0A8.75,8.75,0,0,1,61,12.48a8.55,8.55,0,0,1-.81,3.84,6,6,0,0,1-5.62,3.48Zm0-2a3.74,3.74,0,0,0,2.4-.75,4.35,4.35,0,0,0,1.39-2,7.32,7.32,0,0,0,.46-2.64,7.46,7.46,0,0,0-.46-2.65,4.38,4.38,0,0,0-1.39-2,4.17,4.17,0,0,0-4.8,0,4.48,4.48,0,0,0-1.4,2,7.68,7.68,0,0,0-.45,2.65,7.54,7.54,0,0,0,.45,2.64,4.44,4.44,0,0,0,1.4,2A3.74,3.74,0,0,0,54.54,17.84Z"/><path class="cls-2" d="M64.29,19.5V5.32h2.1V7.53h.19A3.55,3.55,0,0,1,68,5.77a4.24,4.24,0,0,1,2.37-.64,4,4,0,0,1,2.34.64,4.19,4.19,0,0,1,1.47,1.76h.14A4.25,4.25,0,0,1,76,5.78a5.05,5.05,0,0,1,2.61-.65,4.25,4.25,0,0,1,3.11,1.19A5,5,0,0,1,82.9,10V19.5H80.72V10a2.7,2.7,0,0,0-.85-2.25,3.26,3.26,0,0,0-2-.67,3,3,0,0,0-2.31.9,3.25,3.25,0,0,0-.83,2.28V19.5H72.49V9.79a2.56,2.56,0,0,0-.79-2,2.82,2.82,0,0,0-2-.74,3,3,0,0,0-1.58.45,3.3,3.3,0,0,0-1.18,1.25,3.73,3.73,0,0,0-.45,1.85V19.5Z"/><path class="cls-2" d="M88,3a1.5,1.5,0,0,1-1.09-.43,1.38,1.38,0,0,1-.46-1,1.38,1.38,0,0,1,.46-1A1.5,1.5,0,0,1,88,0a1.52,1.52,0,0,1,1.09.43,1.38,1.38,0,0,1,.46,1.05,1.38,1.38,0,0,1-.46,1A1.52,1.52,0,0,1,88,3ZM86.89,19.5V5.32h2.18V19.5Z"/><path class="cls-2" d="M95.24,11V19.5H93.06V5.32h2.1V7.53h.19a4.1,4.1,0,0,1,1.51-1.74,4.73,4.73,0,0,1,2.62-.66,5.22,5.22,0,0,1,2.53.59,4,4,0,0,1,1.68,1.77,6.62,6.62,0,0,1,.6,3v9h-2.18V10.64A3.67,3.67,0,0,0,101.24,8a3.07,3.07,0,0,0-2.38-.94A3.77,3.77,0,0,0,97,7.54a3.22,3.22,0,0,0-1.29,1.32A4.3,4.3,0,0,0,95.24,11Z"/><path class="cls-2" d="M114,25.11a8.17,8.17,0,0,1-2.72-.4,5.94,5.94,0,0,1-1.88-1.05,5.7,5.7,0,0,1-1.2-1.39l1.74-1.22a11.15,11.15,0,0,0,.74.89,3.91,3.91,0,0,0,1.25.88,4.82,4.82,0,0,0,2.07.37,4.57,4.57,0,0,0,2.83-.83,3,3,0,0,0,1.12-2.6V16.88h-.18a10.8,10.8,0,0,1-.68.95,3.86,3.86,0,0,1-1.26,1,4.69,4.69,0,0,1-2.2.44,5.9,5.9,0,0,1-3.08-.81,5.7,5.7,0,0,1-2.15-2.37,8.18,8.18,0,0,1-.79-3.77,8.78,8.78,0,0,1,.77-3.79A6,6,0,0,1,110.51,6a5.67,5.67,0,0,1,3.16-.89,4.58,4.58,0,0,1,2.2.46,4,4,0,0,1,1.25,1c.3.38.52.7.68.94H118V5.32h2.11V19.91a5,5,0,0,1-.83,3,4.79,4.79,0,0,1-2.21,1.69A8.49,8.49,0,0,1,114,25.11Zm-.07-7.79a3.9,3.9,0,0,0,2.21-.6A3.76,3.76,0,0,0,117.52,15,7,7,0,0,0,118,12.3a7.58,7.58,0,0,0-.46-2.71,4.07,4.07,0,0,0-1.37-1.83,3.62,3.62,0,0,0-2.23-.67,3.73,3.73,0,0,0-2.31.7,4.22,4.22,0,0,0-1.37,1.89,7.07,7.07,0,0,0-.46,2.62,6.87,6.87,0,0,0,.46,2.61,4,4,0,0,0,1.39,1.77A3.87,3.87,0,0,0,113.93,17.32Z"/><path class="cls-2" d="M129.88,19.8a6,6,0,0,1-5.62-3.48,8.55,8.55,0,0,1-.81-3.84,8.75,8.75,0,0,1,.81-3.87,6.22,6.22,0,0,1,11.24,0,8.75,8.75,0,0,1,.81,3.87,8.55,8.55,0,0,1-.81,3.84,6,6,0,0,1-5.62,3.48Zm0-2a3.74,3.74,0,0,0,2.4-.75,4.35,4.35,0,0,0,1.39-2,7.32,7.32,0,0,0,.46-2.64,7.46,7.46,0,0,0-.46-2.65,4.38,4.38,0,0,0-1.39-2,4.17,4.17,0,0,0-4.8,0,4.48,4.48,0,0,0-1.4,2,7.68,7.68,0,0,0-.45,2.65,7.54,7.54,0,0,0,.45,2.64,4.44,4.44,0,0,0,1.4,2A3.74,3.74,0,0,0,129.88,17.84Z"/><path class="cls-2" d="M149.67,8.49l-1.95.56a4.19,4.19,0,0,0-.54-1,2.7,2.7,0,0,0-1-.77,3.5,3.5,0,0,0-1.56-.3,3.74,3.74,0,0,0-2.16.59,1.78,1.78,0,0,0-.87,1.51,1.59,1.59,0,0,0,.59,1.29,5.06,5.06,0,0,0,1.85.78l2.11.52A5.79,5.79,0,0,1,149,13.12a3.32,3.32,0,0,1,.93,2.43,3.65,3.65,0,0,1-.69,2.18,4.75,4.75,0,0,1-2,1.51,7,7,0,0,1-2.9.56,6.37,6.37,0,0,1-3.59-.95A4.13,4.13,0,0,1,139,16.1l2.07-.52a2.86,2.86,0,0,0,1.12,1.72,3.74,3.74,0,0,0,2.17.58,4,4,0,0,0,2.42-.66,1.88,1.88,0,0,0,.9-1.56,1.64,1.64,0,0,0-.52-1.24,3.2,3.2,0,0,0-1.58-.75l-2.37-.56a5.62,5.62,0,0,1-2.86-1.44,3.44,3.44,0,0,1-.91-2.44,3.49,3.49,0,0,1,.68-2.12A4.53,4.53,0,0,1,142,5.66a6.49,6.49,0,0,1,2.67-.53,5.27,5.27,0,0,1,3.31.93A4.89,4.89,0,0,1,149.67,8.49Z"/></g></g><g id="_13:00_a_16:00_h" data-name=" 13:00 a 16:00 h" class="cls-1"><g class="cls-1"><path class="cls-2" d="M7,64.59V83.5H4.73V67H4.62L0,70.06V67.73l4.73-3.14Z"/><path class="cls-2" d="M18.83,83.76a8,8,0,0,1-3.25-.63,5.54,5.54,0,0,1-2.26-1.75,4.65,4.65,0,0,1-.91-2.61h2.33a2.67,2.67,0,0,0,.62,1.58,3.66,3.66,0,0,0,1.45,1,5.3,5.3,0,0,0,2,.36A5.11,5.11,0,0,0,21,81.3a3.49,3.49,0,0,0,1.48-1.18A3,3,0,0,0,23,78.37a3.31,3.31,0,0,0-.52-1.85,3.49,3.49,0,0,0-1.51-1.25,5.91,5.91,0,0,0-2.44-.45H17v-2H18.5a4.58,4.58,0,0,0,2-.41,3.19,3.19,0,0,0,1.34-1.14,3,3,0,0,0,.49-1.74,3.24,3.24,0,0,0-.43-1.67,3,3,0,0,0-1.19-1.11,4,4,0,0,0-1.82-.39,4.94,4.94,0,0,0-1.84.35,3.45,3.45,0,0,0-1.41,1A2.68,2.68,0,0,0,15,69.32H12.81a4.56,4.56,0,0,1,.9-2.61A5.62,5.62,0,0,1,15.91,65a7.07,7.07,0,0,1,3-.63,6.06,6.06,0,0,1,3,.71,5,5,0,0,1,1.93,1.86,4.85,4.85,0,0,1,.67,2.49,4.49,4.49,0,0,1-.83,2.73,4.33,4.33,0,0,1-2.27,1.56v.14a4.46,4.46,0,0,1,2.8,1.52,4.63,4.63,0,0,1,1,3,4.75,4.75,0,0,1-.83,2.76,5.76,5.76,0,0,1-2.28,1.93A7.49,7.49,0,0,1,18.83,83.76Z"/><path class="cls-2" d="M30.62,73.12a1.68,1.68,0,1,1,1.43-.83,1.75,1.75,0,0,1-.6.61A1.59,1.59,0,0,1,30.62,73.12Zm0,10.53A1.66,1.66,0,1,1,32.28,82a1.62,1.62,0,0,1-.23.83,1.72,1.72,0,0,1-.6.6A1.6,1.6,0,0,1,30.62,83.65Z"/><path class="cls-2" d="M42.32,83.76a5.61,5.61,0,0,1-3.55-1.14,7.1,7.1,0,0,1-2.25-3.32,15.89,15.89,0,0,1-.77-5.25,15.51,15.51,0,0,1,.78-5.24,7.19,7.19,0,0,1,2.25-3.33,6,6,0,0,1,7.08,0,7.13,7.13,0,0,1,2.26,3.33,18,18,0,0,1,0,10.49,7.09,7.09,0,0,1-2.24,3.32A5.64,5.64,0,0,1,42.32,83.76Zm0-2a3.57,3.57,0,0,0,3.22-2,11.57,11.57,0,0,0,1.14-5.68,14.56,14.56,0,0,0-.52-4.19,5.8,5.8,0,0,0-1.5-2.63,3.33,3.33,0,0,0-2.34-.9,3.55,3.55,0,0,0-3.2,2A11.63,11.63,0,0,0,38,74.05a14.85,14.85,0,0,0,.51,4.17A5.76,5.76,0,0,0,40,80.83,3.35,3.35,0,0,0,42.32,81.73Z"/><path class="cls-2" d="M58.57,83.76A5.61,5.61,0,0,1,55,82.62a7.1,7.1,0,0,1-2.25-3.32A15.89,15.89,0,0,1,52,74.05a15.51,15.51,0,0,1,.78-5.24A7.19,7.19,0,0,1,55,65.48a6,6,0,0,1,7.08,0,7.13,7.13,0,0,1,2.26,3.33,18,18,0,0,1,0,10.49,7.09,7.09,0,0,1-2.24,3.32A5.64,5.64,0,0,1,58.57,83.76Zm0-2a3.57,3.57,0,0,0,3.22-2,11.57,11.57,0,0,0,1.14-5.68,14.56,14.56,0,0,0-.52-4.19,5.8,5.8,0,0,0-1.5-2.63,3.33,3.33,0,0,0-2.34-.9,3.55,3.55,0,0,0-3.2,2,11.63,11.63,0,0,0-1.15,5.71,14.85,14.85,0,0,0,.51,4.17,5.76,5.76,0,0,0,1.49,2.61A3.35,3.35,0,0,0,58.57,81.73Z"/><path class="cls-2" d="M80.18,83.83a5.74,5.74,0,0,1-2.45-.51,4,4,0,0,1-2.39-3.85,3.67,3.67,0,0,1,.48-2A3.49,3.49,0,0,1,77.1,76.3a6.73,6.73,0,0,1,1.78-.65c.65-.15,1.3-.26,2-.35l2.1-.25a3.32,3.32,0,0,0,1.19-.3A.79.79,0,0,0,84.5,74v-.08a2.93,2.93,0,0,0-.74-2.12,3.06,3.06,0,0,0-2.25-.76,3.9,3.9,0,0,0-2.45.69,4,4,0,0,0-1.25,1.46l-2.06-.74a5,5,0,0,1,1.48-2,5.71,5.71,0,0,1,2-1,8.7,8.7,0,0,1,2.17-.29,9.81,9.81,0,0,1,1.58.16,5,5,0,0,1,1.72.67,3.83,3.83,0,0,1,1.39,1.5,5.59,5.59,0,0,1,.56,2.7V83.5H84.5V81.58h-.11a4,4,0,0,1-.74,1,4.06,4.06,0,0,1-1.38.89A5.21,5.21,0,0,1,80.18,83.83Zm.33-2a4.31,4.31,0,0,0,2.18-.51A3.48,3.48,0,0,0,84,80.06a3.33,3.33,0,0,0,.46-1.69v-2a1.25,1.25,0,0,1-.61.3,7.91,7.91,0,0,1-1.07.23c-.4.07-.79.12-1.17.17l-.92.11a9.37,9.37,0,0,0-1.58.36,2.76,2.76,0,0,0-1.18.73,1.84,1.84,0,0,0-.45,1.31,2,2,0,0,0,.84,1.72A3.78,3.78,0,0,0,80.51,81.88Z"/><path class="cls-2" d="M104.59,64.59V83.5H102.3V67h-.11l-4.62,3.07V67.73l4.73-3.14Z"/><path class="cls-2" d="M116.3,83.76a7.11,7.11,0,0,1-2.33-.44,5.64,5.64,0,0,1-2.12-1.44,7.18,7.18,0,0,1-1.54-2.74,13.83,13.83,0,0,1-.59-4.36,19.23,19.23,0,0,1,.47-4.45,10.16,10.16,0,0,1,1.37-3.28,6.25,6.25,0,0,1,2.17-2,5.87,5.87,0,0,1,2.86-.69,6.17,6.17,0,0,1,2.83.63,5.49,5.49,0,0,1,2,1.76,6.13,6.13,0,0,1,1,2.6h-2.25A4.15,4.15,0,0,0,119,67.2a3.38,3.38,0,0,0-2.4-.84,3.94,3.94,0,0,0-3.45,1.91,9.65,9.65,0,0,0-1.27,5.37H112a5.67,5.67,0,0,1,1.24-1.34,5.41,5.41,0,0,1,1.58-.87,5.59,5.59,0,0,1,1.84-.3,5.66,5.66,0,0,1,3,.81,6,6,0,0,1,2.16,2.22,6.45,6.45,0,0,1,.81,3.25,6.62,6.62,0,0,1-.78,3.2,6,6,0,0,1-2.2,2.31A6.25,6.25,0,0,1,116.3,83.76Zm0-2a3.94,3.94,0,0,0,2.09-.58,4.19,4.19,0,0,0,1.47-1.57,4.39,4.39,0,0,0,.54-2.17,4.51,4.51,0,0,0-.52-2.14,4.1,4.1,0,0,0-1.44-1.54,3.79,3.79,0,0,0-2.07-.57,3.87,3.87,0,0,0-1.63.34,4.37,4.37,0,0,0-1.33,1,4.62,4.62,0,0,0-.89,1.37,4.29,4.29,0,0,0-.32,1.62,4.4,4.4,0,0,0,.53,2.11,4.26,4.26,0,0,0,1.46,1.58A3.8,3.8,0,0,0,116.3,81.73Z"/><path class="cls-2" d="M127.86,73.12A1.66,1.66,0,1,1,129,70.29a1.56,1.56,0,0,1,.49,1.17,1.6,1.6,0,0,1-.23.83,1.75,1.75,0,0,1-.6.61A1.59,1.59,0,0,1,127.86,73.12Zm0,10.53A1.67,1.67,0,1,1,129,80.81a1.6,1.6,0,0,1,.49,1.18,1.62,1.62,0,0,1-.23.83,1.72,1.72,0,0,1-.6.6A1.6,1.6,0,0,1,127.86,83.65Z"/><path class="cls-2" d="M139.56,83.76A5.61,5.61,0,0,1,136,82.62a7,7,0,0,1-2.24-3.32,18,18,0,0,1,0-10.49A7.19,7.19,0,0,1,136,65.48a6,6,0,0,1,7.08,0,7.13,7.13,0,0,1,2.26,3.33,18,18,0,0,1,0,10.49,7,7,0,0,1-2.24,3.32A5.62,5.62,0,0,1,139.56,83.76Zm0-2a3.57,3.57,0,0,0,3.22-2,11.57,11.57,0,0,0,1.14-5.68,14.56,14.56,0,0,0-.52-4.19,5.8,5.8,0,0,0-1.5-2.63,3.31,3.31,0,0,0-2.34-.9,3.55,3.55,0,0,0-3.2,2,11.63,11.63,0,0,0-1.15,5.71,14.85,14.85,0,0,0,.51,4.17,5.76,5.76,0,0,0,1.49,2.61A3.35,3.35,0,0,0,139.56,81.73Z"/><path class="cls-2" d="M155.81,83.76a5.61,5.61,0,0,1-3.55-1.14A7,7,0,0,1,150,79.3a18,18,0,0,1,0-10.49,7.19,7.19,0,0,1,2.25-3.33,6,6,0,0,1,7.08,0,7.13,7.13,0,0,1,2.26,3.33,18,18,0,0,1,0,10.49,7,7,0,0,1-2.24,3.32A5.62,5.62,0,0,1,155.81,83.76Zm0-2a3.57,3.57,0,0,0,3.22-2,11.57,11.57,0,0,0,1.14-5.68,14.56,14.56,0,0,0-.52-4.19,5.8,5.8,0,0,0-1.5-2.63,3.31,3.31,0,0,0-2.34-.9,3.55,3.55,0,0,0-3.2,2,11.63,11.63,0,0,0-1.15,5.71,14.85,14.85,0,0,0,.51,4.17,5.76,5.76,0,0,0,1.49,2.61A3.35,3.35,0,0,0,155.81,81.73Z"/><path class="cls-2" d="M175.42,75V83.5h-2.17V64.59h2.17v6.94h.19a4,4,0,0,1,1.5-1.75,4.88,4.88,0,0,1,2.67-.65,5.38,5.38,0,0,1,2.54.58,4,4,0,0,1,1.7,1.76,6.68,6.68,0,0,1,.6,3v9h-2.18V74.64a3.68,3.68,0,0,0-.87-2.62,3.16,3.16,0,0,0-2.42-.93,4,4,0,0,0-1.91.45,3.31,3.31,0,0,0-1.33,1.32A4.3,4.3,0,0,0,175.42,75Z"/></g></g><g id="Grupo_959" data-name="Grupo 959"><line id="Línea_4-3" data-name="Línea 4-3" class="cls-3" x1="90.01" y1="38" x2="104.01" y2="52"/><line id="Línea_5-3" data-name="Línea 5-3" class="cls-3" x1="104.01" y1="38" x2="90.01" y2="52"/></g></g></g></svg>